<svg width="336" height="84" viewBox="0 0 336 84" fill="none" xmlns="http://www.w3.org/2000/svg">
<path d="M251.93 0H323.93C323.93 1.92 324.49 3.84 325.61 5.76001C326.81 7.60001 328.33 9.12 330.17 10.32C332.09 11.44 334.01 12 335.93 12V36H323.93V48H335.93V72C334.01 72 332.09 72.6 330.17 73.8C328.33 74.92 326.81 76.44 325.61 78.36C324.49 80.2 323.93 82.08 323.93 84H251.93V0ZM311.93 72C313.85 72 315.73 71.44 317.57 70.32C319.49 69.12 321.01 67.6 322.13 65.76C323.33 63.84 323.93 61.92 323.93 60C323.93 58.08 323.33 56.2 322.13 54.36C321.01 52.44 319.49 50.92 317.57 49.8C315.73 48.6 313.85 48 311.93 48H263.93V72H311.93ZM311.93 36C313.85 36 315.73 35.44 317.57 34.32C319.49 33.12 321.01 31.6 322.13 29.76C323.33 27.84 323.93 25.92 323.93 24C323.93 22.08 323.33 20.2 322.13 18.36C321.01 16.44 319.49 14.92 317.57 13.8C315.73 12.6 313.85 12 311.93 12H263.93V36H311.93Z" fill="black"/>
<path d="M179.953 84C179.953 82.08 179.353 80.2 178.153 78.36C177.033 76.44 175.513 74.92 173.593 73.8C171.753 72.6 169.873 72 167.953 72V60H179.953C179.953 61.92 180.513 63.84 181.633 65.76C182.833 67.6 184.353 69.12 186.193 70.32C188.113 71.44 190.033 72 191.953 72H227.953C229.873 72 231.753 71.44 233.593 70.32C235.513 69.12 237.033 67.6 238.153 65.76C239.353 63.84 239.953 61.92 239.953 60C239.953 58.08 239.353 56.2 238.153 54.36C237.033 52.44 235.513 50.92 233.593 49.8C231.753 48.6 229.873 48 227.953 48H179.953C179.953 46.08 179.353 44.2 178.153 42.36C177.033 40.44 175.513 38.92 173.593 37.8C171.753 36.6 169.873 36 167.953 36V24V12C169.873 12 171.753 11.44 173.593 10.32C175.513 9.12 177.033 7.60001 178.153 5.76001C179.353 3.84 179.953 1.92 179.953 0H239.953C239.953 1.92 240.513 3.84 241.633 5.76001C242.833 7.60001 244.353 9.12 246.193 10.32C248.113 11.44 250.033 12 251.953 12V24H239.953C239.953 22.08 239.353 20.2 238.153 18.36C237.033 16.44 235.513 14.92 233.593 13.8C231.753 12.6 229.873 12 227.953 12H191.953C190.033 12 188.113 12.6 186.193 13.8C184.353 14.92 182.833 16.44 181.633 18.36C180.513 20.2 179.953 22.08 179.953 24C179.953 25.92 180.513 27.84 181.633 29.76C182.833 31.6 184.353 33.12 186.193 34.32C188.113 35.44 190.033 36 191.953 36H239.953C239.953 37.92 240.513 39.84 241.633 41.76C242.833 43.6 244.353 45.12 246.193 46.32C248.113 47.44 250.033 48 251.953 48V60V72C250.033 72 248.113 72.6 246.193 73.8C244.353 74.92 242.833 76.44 241.633 78.36C240.513 80.2 239.953 82.08 239.953 84H179.953Z" fill="black"/>
<path d="M95.9766 84C95.9766 82.08 95.3766 80.2 94.1766 78.36C93.0566 76.44 91.5366 74.92 89.6166 73.8C87.7766 72.6 85.8966 72 83.9766 72V12C85.8966 12 87.7766 11.44 89.6166 10.32C91.5366 9.12 93.0566 7.60001 94.1766 5.76001C95.3766 3.84 95.9766 1.92 95.9766 0H155.977C155.977 1.92 156.537 3.84 157.657 5.76001C158.857 7.60001 160.377 9.12 162.217 10.32C164.137 11.44 166.057 12 167.977 12V24H155.977C155.977 22.08 155.377 20.2 154.177 18.36C153.057 16.44 151.537 14.92 149.617 13.8C147.777 12.6 145.897 12 143.977 12H107.977C106.057 12 104.137 12.6 102.217 13.8C100.377 14.92 98.8566 16.44 97.6566 18.36C96.5366 20.2 95.9766 22.08 95.9766 24V60C95.9766 61.92 96.5366 63.84 97.6566 65.76C98.8566 67.6 100.377 69.12 102.217 70.32C104.137 71.44 106.057 72 107.977 72H143.977C145.977 72 147.897 71.44 149.737 70.32C151.577 69.12 153.057 67.6 154.177 65.76C155.377 63.92 155.977 62 155.977 60C155.977 58.08 155.377 56.2 154.177 54.36C153.057 52.44 151.537 50.92 149.617 49.8C147.777 48.6 145.897 48 143.977 48H119.977V36H155.977C155.977 37.92 156.537 39.84 157.657 41.76C158.857 43.6 160.377 45.12 162.217 46.32C164.137 47.44 166.057 48 167.977 48V60V72C166.057 72 164.137 72.6 162.217 73.8C160.377 74.92 158.857 76.44 157.657 78.36C156.537 80.2 155.977 82.08 155.977 84H95.9766Z" fill="black"/>
<path d="M60 72C61.92 72 63.8 71.44 65.64 70.32C67.56 69.12 69.08 67.6 70.2 65.76C71.4 63.84 72 61.92 72 60H84V72C82.08 72 80.16 72.6 78.24 73.8C76.4 74.92 74.88 76.44 73.68 78.36C72.56 80.2 72 82.08 72 84H12C12 82.08 11.4 80.2 10.2 78.36C9.08 76.44 7.56 74.92 5.64 73.8C3.8 72.6 1.92 72 0 72V12C1.92 12 3.8 11.44 5.64 10.32C7.56 9.12 9.08 7.60001 10.2 5.76001C11.4 3.84 12 1.92 12 0H72C72 1.92 72.56 3.84 73.68 5.76001C74.88 7.60001 76.4 9.12 78.24 10.32C80.16 11.44 82.08 12 84 12V24H72C72 22.08 71.4 20.2 70.2 18.36C69.08 16.44 67.56 14.92 65.64 13.8C63.8 12.6 61.92 12 60 12H24C22.08 12 20.16 12.6 18.24 13.8C16.4 14.92 14.88 16.44 13.68 18.36C12.56 20.2 12 22.08 12 24V60C12 61.92 12.56 63.84 13.68 65.76C14.88 67.6 16.4 69.12 18.24 70.32C20.16 71.44 22.08 72 24 72H60Z" fill="black"/>
</svg>
