<svg width="333" height="84" viewBox="0 0 333 84" fill="none" xmlns="http://www.w3.org/2000/svg">
<path d="M248.33 84V0H320.33C320.33 6 326.33 12 332.33 12V36H320.33V48H332.33V72C326.33 72 320.33 78 320.33 84H248.33ZM260.33 36H308.33C314.33 36 320.33 30 320.33 24C320.33 18 314.33 12 308.33 12H260.33V36ZM260.33 72H308.33C314.33 72 320.33 66 320.33 60C320.33 54 314.33 48 308.33 48H260.33V72Z" fill="#2C3137"/>
<path d="M177.553 84C177.553 78 171.553 72 165.553 72V60H177.553C177.553 66 183.553 72 189.553 72H225.553C231.553 72 237.553 66 237.553 60C237.553 54 231.553 48 225.553 48H177.553C177.553 42 171.553 36 165.553 36V12C171.553 12 177.553 6 177.553 0H237.553C237.553 6 243.553 12 249.553 12V24H237.553C237.553 18 231.553 12 225.553 12H189.553C183.553 12 177.553 18 177.553 24C177.553 30 183.553 36 189.553 36H237.553C237.553 42 243.553 48 249.553 48V72C243.553 72 237.553 78 237.553 84H177.553Z" fill="#2C3137"/>
<path d="M94.7766 84C94.7766 78 88.7766 72 82.7766 72V12C88.7766 12 94.7766 6 94.7766 0H154.777C154.777 6 160.777 12 166.777 12V24H154.777C154.777 18 148.777 12 142.777 12H106.777C100.777 12 94.7766 18 94.7766 24V60C94.7766 66 100.777 72 106.777 72H142.777C148.777 72 154.777 66.12 154.777 60C154.777 54 148.777 48 142.777 48H118.777V36H154.777C154.777 42 160.777 48 166.777 48V72C160.777 72 154.777 78 154.777 84H94.7766Z" fill="#2C3137"/>
<path d="M60 72C66 72 72 66 72 60H84V72C78 72 72 78 72 84H12C12 78 6 72 0 72V12C6 12 12 6 12 0H72C72 6 78 12 84 12V24H72C72 18 66 12 60 12H24C18 12 12 18 12 24V60C12 66 18 72 24 72H60Z" fill="#2C3137"/>
</svg>
